<svg xmlns="http://www.w3.org/2000/svg" fill="none" viewBox="0 0 348 100">
  <path fill="#439FD9" fill-rule="evenodd" d="M111.649.097c5.386-.757 10.367 2.998 11.124 8.389l9.253 65.882c.757 5.39-2.996 10.374-8.383 11.132L21.231 99.903c-5.386.757-10.367-2.998-11.124-8.389L.855 25.632C.098 20.242 3.85 15.258 9.237 14.5L111.65.097ZM64.252 16.716l23.165-3.258 1.37 9.76-23.164 3.258-1.37-9.76ZM46.682 86.37l21.946-3.086-1.37-9.76-21.946 3.086 1.37 9.76Zm-6.247-9.074 1.371 9.76-21.945 3.087-1.371-9.76 21.945-3.087Zm26.137-8.653-5.14-36.6L12.664 38.9l5.14 36.601 48.768-6.858Zm55.7 7.097-20.726 2.914-1.371-9.76 20.726-2.915 1.371 9.76Zm-50.823-7.782-5.14-36.602 48.767-6.858 5.14 36.601-48.767 6.859Zm25.22 11.382-1.37-9.76-23.165 3.258 1.37 9.76L96.67 79.34ZM32.553 21.174l-21.945 3.087 1.37 9.76 21.946-3.087-1.37-9.76Zm6.248 9.075-1.37-9.76 21.945-3.087 1.37 9.76-21.945 3.087Zm54.863-7.716-1.37-9.76 20.726-2.916 1.37 9.76-20.726 2.916Z" clip-rule="evenodd"/>
  <path fill="#BBDCEC" d="M254.792 5.962c0-1.631.586-3.033 1.757-4.205C257.721.586 259.123 0 260.754 0h51.025c12.511 0 21.737 3.598 27.678 10.795 3.306 3.975 4.958 9.059 4.958 15.251 0 6.15-2.824 11.527-8.472 16.13 8.033 4.31 12.05 11.004 12.05 20.083 0 9.08-3.222 15.984-9.665 20.712C331.926 87.657 324.06 90 314.729 90h-53.975c-1.631 0-3.033-.565-4.205-1.695-1.171-1.171-1.757-2.573-1.757-4.205V5.962Zm23.661 67.092h35.9c3.221 0 5.69-.962 7.406-2.887 1.715-1.924 2.573-4.56 2.573-7.908 0-3.347-.858-5.983-2.573-7.907-1.716-1.925-4.185-2.888-7.406-2.888h-35.9v21.59Zm0-38.096h33.577c2.636 0 4.749-.774 6.339-2.322 1.59-1.59 2.385-3.787 2.385-6.59 0-2.845-.795-5.063-2.385-6.653-1.59-1.59-3.703-2.385-6.339-2.385h-33.577v17.95Z"/>
  <path fill="#BBDCEC" d="M148.851 84.226V6.088c0-1.716.585-3.16 1.757-4.33C151.779.585 153.181 0 154.813 0h35.084c18.159 0 31.359 3.64 39.602 10.92 8.285 7.239 12.427 18.62 12.427 34.143 0 15.48-4.142 26.84-12.427 34.08C221.256 86.38 208.056 90 189.897 90h-35.084c-1.632 0-3.034-.544-4.205-1.632-1.172-1.13-1.757-2.51-1.757-4.142Zm23.661-11.987h16.694c11.255 0 18.912-2.05 22.971-6.151 4.059-4.1 6.088-11.109 6.088-21.025 0-9.958-2.029-16.988-6.088-21.088-4.059-4.142-11.716-6.213-22.971-6.213h-16.694v54.477Z"/>
</svg>
