<svg xmlns="http://www.w3.org/2000/svg" fill="none" viewBox="0 0 721 98">
  <path fill="#439FD9" fill-rule="evenodd" d="M213.213 16.791a7.945 7.945 0 0 1 8.973 6.767l7.464 53.147a7.95 7.95 0 0 1-6.762 8.98l-82.614 11.619a7.946 7.946 0 0 1-8.974-6.767l-7.464-53.147c-.611-4.348 2.417-8.369 6.762-8.98l82.615-11.619Zm-38.235 13.407 18.687-2.628 1.106 7.873-18.687 2.628-1.106-7.873Zm-14.173 56.189 17.703-2.49-1.106-7.873-17.703 2.49 1.106 7.873Zm-5.04-7.32 1.106 7.873-17.703 2.49-1.106-7.874 17.703-2.49Zm21.085-6.98-4.147-29.526-39.34 5.533 4.146 29.526 39.341-5.533Zm44.932 5.724-16.719 2.352-1.106-7.874 16.72-2.351 1.105 7.873Zm-40.998-6.277-4.147-29.526 39.34-5.533 4.147 29.526-39.34 5.533Zm20.345 9.182-1.106-7.874-18.687 2.629 1.106 7.873 18.687-2.628Zm-51.722-46.922-17.703 2.49 1.106 7.873 17.703-2.49-1.106-7.873Zm5.04 7.32-1.106-7.873 17.703-2.49 1.106 7.873-17.703 2.49Zm44.258-6.224-1.106-7.874 16.719-2.351 1.106 7.873-16.719 2.352Z" clip-rule="evenodd"/>
  <path fill="#BBDCEC" d="M627.351 7.93c0-1.624.583-3.02 1.75-4.187 1.166-1.166 2.562-1.75 4.187-1.75h50.813c12.458 0 21.645 3.584 27.562 10.75 3.292 3.959 4.938 9.021 4.938 15.188 0 6.125-2.813 11.479-8.438 16.062 8 4.292 12 10.959 12 20 0 9.042-3.208 15.917-9.625 20.625-6.375 4.667-14.208 7-23.5 7h-53.75c-1.625 0-3.021-.562-4.187-1.687-1.167-1.167-1.75-2.563-1.75-4.188V7.931Zm23.562 66.813h35.75c3.208 0 5.667-.958 7.375-2.875 1.708-1.916 2.563-4.541 2.563-7.875 0-3.333-.855-5.958-2.563-7.875-1.708-1.916-4.167-2.875-7.375-2.875h-35.75v21.5Zm0-37.937h33.438c2.625 0 4.729-.771 6.312-2.313 1.583-1.583 2.375-3.77 2.375-6.562 0-2.834-.792-5.042-2.375-6.625-1.583-1.584-3.687-2.375-6.312-2.375h-33.438v17.875Z"/>
  <path fill="#BBDCEC" d="M521.851 85.868V8.056c0-1.709.583-3.146 1.75-4.313 1.166-1.166 2.562-1.75 4.187-1.75h34.938c18.083 0 31.229 3.625 39.437 10.875 8.25 7.209 12.375 18.542 12.375 34 0 15.417-4.125 26.73-12.375 33.938-8.208 7.208-21.354 10.812-39.437 10.812h-34.938c-1.625 0-3.021-.541-4.187-1.625-1.167-1.125-1.75-2.5-1.75-4.125Zm23.562-11.937h16.625c11.208 0 18.833-2.042 22.875-6.125 4.042-4.084 6.063-11.063 6.063-20.938 0-9.916-2.021-16.916-6.063-21-4.042-4.125-11.667-6.187-22.875-6.187h-16.625v54.25Z"/>
  <path fill="#BBDCEC" d="M440.101 42.056c0-13.458 10.854-20.188 32.562-20.188 22.833 0 34.25 5.98 34.25 17.938 0 1.083-.354 2-1.062 2.75-.709.708-1.625 1.062-2.75 1.062h-9.313c-3 0-5.521-1.25-7.562-3.75-2.042-2.541-6.063-3.812-12.063-3.812-8.25 0-12.375 2-12.375 6 0 1.875 1.604 3.437 4.813 4.687 3.25 1.25 7.187 2.354 11.812 3.313 4.667.916 9.313 2.104 13.938 3.562 4.625 1.459 8.541 3.792 11.75 7 3.25 3.167 4.875 7.188 4.875 12.063 0 13.458-11.459 20.187-34.375 20.187-22.917 0-34.375-5.958-34.375-17.875 0-1.125.354-2.041 1.062-2.75.75-.75 1.688-1.125 2.813-1.125h9.312c3 0 5.521 1.271 7.563 3.813 2.041 2.5 6.062 3.75 12.062 3.75 9.542 0 14.313-2 14.313-6 0-1.875-1.625-3.438-4.875-4.688-3.209-1.25-7.146-2.354-11.813-3.312-4.667-1-9.312-2.209-13.937-3.625-4.584-1.459-8.5-3.792-11.75-7-3.25-3.209-4.875-7.209-4.875-12Z"/>
  <path fill="#BBDCEC" d="M369.101 83.743c-6.417-6.083-9.625-14.833-9.625-26.25 0-11.458 3.229-20.25 9.687-26.375 6.458-6.166 15.417-9.25 26.875-9.25s20.396 3 26.813 9c6.416 5.959 9.625 14.521 9.625 25.688v3.562c0 1.125-.375 2.063-1.125 2.813-.709.708-1.625 1.062-2.75 1.062h-47.063c.417 5.125 1.875 8.854 4.375 11.188 2.542 2.333 6.583 3.5 12.125 3.5s9.333-1.25 11.375-3.75 4.563-3.771 7.563-3.813h9.312c1.125 0 2.042.375 2.75 1.125.75.709 1.125 1.625 1.125 2.75 0 11.959-11.396 17.917-34.187 17.875-11.5 0-20.459-3.041-26.875-9.125Zm12.312-32.937h29.063c-.417-9.834-5.25-14.75-14.5-14.75-9.209 0-14.063 4.916-14.563 14.75Z"/>
  <path fill="#BBDCEC" d="M325.851 10.056V7.93c0-2.209.625-3.959 1.875-5.25 1.291-1.292 3.062-1.938 5.312-1.938h7.75c2.208 0 3.958.646 5.25 1.938 1.292 1.25 1.938 3 1.938 5.25v2.125c0 2.208-.646 3.958-1.938 5.25-1.25 1.292-3 1.937-5.25 1.937h-7.75c-2.208 0-3.958-.645-5.25-1.937-1.292-1.292-1.937-3.042-1.937-5.25Zm.25 77.75V28.493c0-1.125.354-2.041 1.062-2.75.75-.708 1.667-1.062 2.75-1.062h14c1.125 0 2.042.375 2.75 1.125.708.708 1.063 1.604 1.063 2.687v59.313c0 1.125-.375 2.041-1.125 2.75-.709.708-1.605 1.062-2.688 1.062h-14c-1.125 0-2.042-.354-2.75-1.062-.708-.709-1.062-1.625-1.062-2.75Z"/>
  <path fill="#BBDCEC" d="M238.663 23.118h12c1.792 0 3.479.521 5.063 1.563 1.583 1 2.708 2.312 3.375 3.937l17.062 38.938 17-38.938c.667-1.625 1.792-2.937 3.375-3.937 1.583-1.042 3.271-1.563 5.063-1.563h12.062c1.458 0 2.417.542 2.875 1.625.208.417.292.959.25 1.625 0 .625-.187 1.375-.562 2.25l-27 57.5c-.75 1.625-1.938 2.959-3.563 4-1.583 1-3.229 1.5-4.937 1.5h-9.188c-1.708 0-3.354-.5-4.937-1.5-1.584-1.041-2.75-2.375-3.5-4l-27-57.5c-.417-.916-.625-1.687-.625-2.312 0-2.125 1.062-3.188 3.187-3.188Z"/>
  <path fill="#BBDCEC" d="M.688 87.806V26.993c0-1.125.354-2.041 1.062-2.75.75-.75 1.667-1.125 2.75-1.125h14c1.125 0 2.042.375 2.75 1.125.708.709 1.063 1.625 1.063 2.75v3.938c3-2.917 5.937-5.146 8.812-6.688 2.917-1.583 6.417-2.375 10.5-2.375 9.708 0 17.063 4 22.063 12 7.75-8.041 15.687-12.041 23.812-12 8.167 0 14.604 2.459 19.312 7.375 4.75 4.875 7.126 12.438 7.126 22.688v35.875c0 1.125-.355 2.041-1.063 2.75-.708.708-1.625 1.062-2.75 1.062H96.187c-1.124 0-2.062-.354-2.812-1.062-.708-.75-1.063-1.667-1.063-2.75V51.93c0-10-3.624-14.98-10.874-14.938-4.417 0-8.98 3.188-13.688 9.563a38.85 38.85 0 0 1 .375 5.375v35.875c0 1.125-.375 2.041-1.125 2.75-.708.708-1.604 1.062-2.688 1.062H50.376c-1.125 0-2.063-.354-2.813-1.062-.708-.75-1.062-1.667-1.062-2.75V51.93c0-10-3.625-14.98-10.875-14.938-4.625 0-9.063 2.98-13.313 8.938v41.875c0 1.125-.375 2.041-1.125 2.75-.708.708-1.604 1.062-2.687 1.062h-14c-1.125 0-2.042-.354-2.75-1.062-.708-.709-1.063-1.625-1.063-2.75Z"/>
</svg>
