<svg xmlns="http://www.w3.org/2000/svg" fill="none" viewBox="0 0 300 450">
  <path fill="#F5F5F4" d="M0 0h300v450H0z"/>
  <path fill="#185277" fill-opacity=".25" d="M206 174.656 200.344 169 94 275.344 99.656 281l8-8H190a8.008 8.008 0 0 0 5.653-2.347A8.008 8.008 0 0 0 198 265v-82.344l8-8ZM190 265h-74.344l31.172-31.172 9.516 9.516a7.999 7.999 0 0 0 11.312 0L174 237l16 15.988V265Zm0-23.328-10.344-10.344a7.999 7.999 0 0 0-11.312 0L162 237.672l-9.508-9.508L190 190.656v51.016ZM110 249v-12l20-19.988 5.492 5.496 5.664-5.664-5.5-5.5a7.999 7.999 0 0 0-11.312 0L110 225.688V185h64v-8h-64a8.012 8.012 0 0 0-5.655 2.345A8.012 8.012 0 0 0 102 185v64h8Z"/>
</svg>
