<svg xmlns="http://www.w3.org/2000/svg" fill="none" viewBox="0 0 880 360">
  <path fill="#D9D9D9" d="M0 6.429C0 2.879 3.682 0 8.224 0h863.552C876.318 0 880 2.878 880 6.429V353.57c0 3.551-3.682 6.429-8.224 6.429H8.224C3.682 360 0 357.122 0 353.571V6.429Z"/>
  <path fill="#F5F5F4" d="M16 22.56c0-3.623 2.786-6.56 6.222-6.56h197.556c3.436 0 6.222 2.937 6.222 6.56v314.88c0 3.623-2.786 6.56-6.222 6.56H22.222c-3.436 0-6.222-2.937-6.222-6.56V22.56ZM250 122h390v31H250v-31ZM250 165h205v31H250v-31ZM250 323c0-11.598 9.402-21 21-21s21 9.402 21 21-9.402 21-21 21-21-9.402-21-21ZM324 302h42v42h-42v-42ZM374 312h80v22h-80v-22Z"/>
</svg>
