<svg xmlns="http://www.w3.org/2000/svg">
  <symbol id="logo_dark" fill="none" viewBox="0 0 720 100">
    <path fill="#185277" d="M.635 87.044v-60.44c0-1.118.352-2.029 1.055-2.733.745-.745 1.656-1.118 2.731-1.118h13.905c1.117 0 2.028.373 2.731 1.118.704.704 1.055 1.615 1.055 2.733v3.914c2.98-2.9 5.897-5.115 8.753-6.647 2.896-1.573 6.372-2.36 10.428-2.36 9.642 0 16.946 3.975 21.912 11.926 7.697-7.992 15.58-11.968 23.65-11.926 8.11 0 14.504 2.443 19.18 7.33 4.718 4.845 7.076 12.36 7.076 22.548v35.655c0 1.118-.351 2.029-1.055 2.733-.703.704-1.614 1.056-2.731 1.056H95.483c-1.118 0-2.049-.352-2.794-1.056-.703-.746-1.055-1.657-1.055-2.733V51.389c0-9.939-3.6-14.887-10.8-14.846-4.387 0-8.918 3.168-13.595 9.504.249 1.78.373 3.561.373 5.342v35.655c0 1.118-.373 2.029-1.117 2.733-.704.704-1.594 1.056-2.67 1.056H49.983c-1.117 0-2.048-.352-2.793-1.056-.704-.746-1.055-1.657-1.055-2.733V51.389c0-9.939-3.6-14.887-10.801-14.846-4.594 0-9 2.96-13.222 8.883v41.618c0 1.118-.372 2.029-1.117 2.733-.704.704-1.593 1.056-2.67 1.056H4.422c-1.117 0-2.027-.352-2.73-1.056-.704-.704-1.056-1.615-1.056-2.733ZM236.985 22.753h11.918c1.78 0 3.456.518 5.028 1.553 1.573.994 2.69 2.298 3.352 3.913l16.946 38.699 16.884-38.699c.662-1.615 1.779-2.92 3.352-3.913 1.572-1.035 3.248-1.553 5.028-1.553h11.98c1.448 0 2.4.538 2.855 1.615.207.414.29.953.248 1.615 0 .621-.186 1.367-.558 2.236l-26.816 57.148c-.745 1.615-1.924 2.94-3.538 3.975-1.572.994-3.207 1.49-4.904 1.49h-9.124c-1.697 0-3.332-.496-4.904-1.49-1.573-1.035-2.731-2.36-3.476-3.975L234.44 28.219c-.414-.91-.621-1.677-.621-2.298 0-2.112 1.056-3.168 3.166-3.168ZM323.577 9.77V7.66c0-2.195.621-3.934 1.862-5.218 1.283-1.284 3.042-1.926 5.276-1.926h7.698c2.193 0 3.931.642 5.214 1.926 1.282 1.242 1.924 2.982 1.924 5.218V9.77c0 2.194-.642 3.934-1.924 5.217-1.242 1.284-2.98 1.926-5.214 1.926h-7.698c-2.193 0-3.931-.642-5.214-1.926-1.283-1.283-1.924-3.022-1.924-5.217Zm.248 77.274V28.095c0-1.118.352-2.029 1.056-2.733.744-.704 1.655-1.056 2.731-1.056h13.904c1.117 0 2.028.373 2.731 1.118.704.704 1.056 1.594 1.056 2.671v58.949c0 1.118-.373 2.029-1.118 2.733-.703.704-1.593 1.056-2.669 1.056h-13.904c-1.118 0-2.028-.352-2.731-1.056-.704-.704-1.056-1.615-1.056-2.733ZM366.532 83.006c-6.373-6.046-9.56-14.742-9.56-26.089 0-11.388 3.207-20.126 9.622-26.213 6.414-6.129 15.311-9.193 26.691-9.193 11.38 0 20.257 2.981 26.629 8.945 6.373 5.921 9.56 14.431 9.56 25.53v3.54c0 1.118-.373 2.05-1.118 2.795-.703.704-1.613 1.056-2.731 1.056h-46.741c.414 5.094 1.862 8.8 4.345 11.12 2.525 2.318 6.539 3.478 12.042 3.478 5.504 0 9.27-1.243 11.298-3.727 2.027-2.485 4.531-3.748 7.511-3.79h9.248c1.118 0 2.028.373 2.732 1.119.745.704 1.117 1.615 1.117 2.733 0 11.885-11.318 17.807-33.954 17.765-11.421 0-20.319-3.023-26.691-9.069Zm12.228-32.735h28.864c-.414-9.773-5.214-14.66-14.401-14.66-9.145 0-13.966 4.887-14.463 14.66ZM437.047 41.574c0-13.375 10.78-20.063 32.34-20.063 22.677 0 34.016 5.942 34.016 17.827 0 1.077-.352 1.988-1.055 2.733-.704.704-1.614 1.056-2.732 1.056h-9.249c-2.979 0-5.483-1.242-7.51-3.727-2.028-2.526-6.021-3.789-11.981-3.789-8.193 0-12.29 1.988-12.29 5.963 0 1.864 1.593 3.417 4.78 4.66 3.227 1.241 7.138 2.339 11.731 3.291 4.635.911 9.249 2.092 13.843 3.541 4.593 1.45 8.483 3.768 11.669 6.957 3.228 3.147 4.842 7.143 4.842 11.988 0 13.376-11.38 20.064-34.14 20.064-22.76 0-34.14-5.922-34.14-17.765 0-1.118.352-2.03 1.055-2.733.745-.746 1.676-1.118 2.793-1.118h9.249c2.98 0 5.483 1.263 7.511 3.789 2.028 2.484 6.021 3.727 11.98 3.727 9.477 0 14.215-1.988 14.215-5.963 0-1.864-1.614-3.417-4.842-4.66-3.186-1.242-7.097-2.339-11.732-3.291a165.965 165.965 0 0 1-13.842-3.603c-4.552-1.45-8.442-3.768-11.67-6.957-3.227-3.189-4.841-7.164-4.841-11.927ZM518.238 85.118V7.783c0-1.698.58-3.127 1.738-4.286 1.159-1.16 2.545-1.74 4.159-1.74h34.699c17.96 0 31.016 3.603 39.168 10.809 8.194 7.164 12.291 18.428 12.291 33.791 0 15.322-4.097 26.566-12.291 33.73-8.152 7.164-21.208 10.746-39.168 10.746h-34.699c-1.614 0-3-.538-4.159-1.615-1.158-1.118-1.738-2.485-1.738-4.1Zm23.402-11.864h16.511c11.132 0 18.705-2.03 22.719-6.088 4.014-4.058 6.021-10.994 6.021-20.809 0-9.855-2.007-16.813-6.021-20.87-4.014-4.1-11.587-6.15-22.719-6.15H541.64v53.917ZM623.018 7.659c0-1.615.579-3.003 1.738-4.162 1.158-1.16 2.545-1.74 4.159-1.74h50.465c12.373 0 21.498 3.562 27.374 10.685 3.269 3.934 4.904 8.965 4.904 15.094 0 6.087-2.793 11.409-8.38 15.964 7.946 4.265 11.918 10.891 11.918 19.877 0 8.986-3.186 15.82-9.559 20.499-6.332 4.638-14.111 6.957-23.34 6.957h-53.382c-1.614 0-3.001-.56-4.159-1.677-1.159-1.16-1.738-2.547-1.738-4.162V7.659Zm23.401 66.402h35.506c3.186 0 5.628-.952 7.325-2.857 1.696-1.905 2.545-4.514 2.545-7.827 0-3.313-.849-5.921-2.545-7.826-1.697-1.905-4.139-2.858-7.325-2.858h-35.506v21.368Zm0-37.704h33.209c2.607 0 4.697-.767 6.27-2.299 1.572-1.573 2.358-3.747 2.358-6.522 0-2.816-.786-5.01-2.358-6.584-1.573-1.574-3.663-2.36-6.27-2.36h-33.209v17.765Z"/>
    <path fill="#439FD9" fill-rule="evenodd" d="M212.213 15.791a7.945 7.945 0 0 1 8.973 6.767l7.464 53.147a7.95 7.95 0 0 1-6.762 8.98l-82.614 11.619a7.946 7.946 0 0 1-8.974-6.767l-7.464-53.147c-.611-4.348 2.417-8.369 6.762-8.98l82.615-11.619Zm-38.235 13.407 18.687-2.628 1.106 7.873-18.687 2.628-1.106-7.873Zm-14.173 56.189 17.703-2.49-1.106-7.873-17.703 2.49 1.106 7.873Zm-5.04-7.32 1.106 7.873-17.703 2.49-1.106-7.874 17.703-2.49Zm21.085-6.98-4.147-29.526-39.34 5.533 4.146 29.526 39.341-5.533Zm44.932 5.724-16.719 2.352-1.106-7.874 16.72-2.351 1.105 7.873Zm-40.998-6.277-4.147-29.526 39.34-5.533 4.147 29.526-39.34 5.533Zm20.345 9.182-1.106-7.874-18.687 2.629 1.106 7.873 18.687-2.628Zm-51.722-46.922-17.703 2.49 1.106 7.873 17.703-2.49-1.106-7.873Zm5.04 7.32-1.106-7.873 17.703-2.49 1.106 7.873-17.703 2.49Zm44.258-6.224-1.106-7.874 16.719-2.351 1.106 7.873-16.719 2.352Z" clip-rule="evenodd"/>
  </symbol>

  <symbol id="logo_light" fill="none" viewBox="0 0 720 100">
    <path fill="#E1F0F9" d="M.635 87.044v-60.44c0-1.118.352-2.029 1.055-2.733.745-.745 1.656-1.118 2.731-1.118h13.905c1.117 0 2.028.373 2.731 1.118.704.704 1.055 1.615 1.055 2.733v3.914c2.98-2.9 5.897-5.115 8.753-6.647 2.896-1.573 6.372-2.36 10.428-2.36 9.642 0 16.946 3.975 21.912 11.926 7.697-7.992 15.58-11.968 23.65-11.926 8.11 0 14.504 2.443 19.18 7.33 4.718 4.845 7.076 12.36 7.076 22.548v35.655c0 1.118-.351 2.029-1.055 2.733-.703.704-1.614 1.056-2.731 1.056H95.483c-1.118 0-2.049-.352-2.794-1.056-.703-.746-1.055-1.657-1.055-2.733V51.389c0-9.939-3.6-14.887-10.8-14.846-4.387 0-8.918 3.168-13.595 9.504.249 1.78.373 3.561.373 5.342v35.655c0 1.118-.373 2.029-1.117 2.733-.704.704-1.594 1.056-2.67 1.056H49.983c-1.117 0-2.048-.352-2.793-1.056-.704-.746-1.055-1.657-1.055-2.733V51.389c0-9.939-3.6-14.887-10.801-14.846-4.594 0-9 2.96-13.222 8.883v41.618c0 1.118-.372 2.029-1.117 2.733-.704.704-1.593 1.056-2.67 1.056H4.422c-1.117 0-2.027-.352-2.73-1.056-.704-.704-1.056-1.615-1.056-2.733ZM236.985 22.753h11.918c1.78 0 3.456.518 5.028 1.553 1.573.994 2.69 2.298 3.352 3.913l16.946 38.699 16.884-38.699c.662-1.615 1.779-2.92 3.352-3.913 1.572-1.035 3.248-1.553 5.028-1.553h11.98c1.448 0 2.4.538 2.855 1.615.207.414.29.953.248 1.615 0 .621-.186 1.367-.558 2.236l-26.816 57.148c-.745 1.615-1.924 2.94-3.538 3.975-1.572.994-3.207 1.49-4.904 1.49h-9.124c-1.697 0-3.332-.496-4.904-1.49-1.573-1.035-2.731-2.36-3.476-3.975L234.44 28.219c-.414-.91-.621-1.677-.621-2.298 0-2.112 1.056-3.168 3.166-3.168ZM323.577 9.77V7.66c0-2.195.621-3.934 1.862-5.218 1.283-1.284 3.042-1.926 5.276-1.926h7.698c2.193 0 3.931.642 5.214 1.926 1.282 1.242 1.924 2.982 1.924 5.218V9.77c0 2.194-.642 3.934-1.924 5.217-1.242 1.284-2.98 1.926-5.214 1.926h-7.698c-2.193 0-3.931-.642-5.214-1.926-1.283-1.283-1.924-3.022-1.924-5.217Zm.248 77.274V28.095c0-1.118.352-2.029 1.056-2.733.744-.704 1.655-1.056 2.731-1.056h13.904c1.117 0 2.028.373 2.731 1.118.704.704 1.056 1.594 1.056 2.671v58.949c0 1.118-.373 2.029-1.118 2.733-.703.704-1.593 1.056-2.669 1.056h-13.904c-1.118 0-2.028-.352-2.731-1.056-.704-.704-1.056-1.615-1.056-2.733ZM366.532 83.006c-6.373-6.046-9.56-14.742-9.56-26.089 0-11.388 3.207-20.126 9.622-26.213 6.414-6.129 15.311-9.193 26.691-9.193 11.38 0 20.257 2.981 26.629 8.945 6.373 5.921 9.56 14.431 9.56 25.53v3.54c0 1.118-.373 2.05-1.118 2.795-.703.704-1.613 1.056-2.731 1.056h-46.741c.414 5.094 1.862 8.8 4.345 11.12 2.525 2.318 6.539 3.478 12.042 3.478 5.504 0 9.27-1.243 11.298-3.727 2.027-2.485 4.531-3.748 7.511-3.79h9.248c1.118 0 2.028.373 2.732 1.119.745.704 1.117 1.615 1.117 2.733 0 11.885-11.318 17.807-33.954 17.765-11.421 0-20.319-3.023-26.691-9.069Zm12.228-32.735h28.864c-.414-9.773-5.214-14.66-14.401-14.66-9.145 0-13.966 4.887-14.463 14.66ZM437.047 41.574c0-13.375 10.78-20.063 32.34-20.063 22.677 0 34.016 5.942 34.016 17.827 0 1.077-.352 1.988-1.055 2.733-.704.704-1.614 1.056-2.732 1.056h-9.249c-2.979 0-5.483-1.242-7.51-3.727-2.028-2.526-6.021-3.789-11.981-3.789-8.193 0-12.29 1.988-12.29 5.963 0 1.864 1.593 3.417 4.78 4.66 3.227 1.241 7.138 2.339 11.731 3.291 4.635.911 9.249 2.092 13.843 3.541 4.593 1.45 8.483 3.768 11.669 6.957 3.228 3.147 4.842 7.143 4.842 11.988 0 13.376-11.38 20.064-34.14 20.064-22.76 0-34.14-5.922-34.14-17.765 0-1.118.352-2.03 1.055-2.733.745-.746 1.676-1.118 2.793-1.118h9.249c2.98 0 5.483 1.263 7.511 3.789 2.028 2.484 6.021 3.727 11.98 3.727 9.477 0 14.215-1.988 14.215-5.963 0-1.864-1.614-3.417-4.842-4.66-3.186-1.242-7.097-2.339-11.732-3.291a165.965 165.965 0 0 1-13.842-3.603c-4.552-1.45-8.442-3.768-11.67-6.957-3.227-3.189-4.841-7.164-4.841-11.927ZM518.238 85.118V7.783c0-1.698.58-3.127 1.738-4.286 1.159-1.16 2.545-1.74 4.159-1.74h34.699c17.96 0 31.016 3.603 39.168 10.809 8.194 7.164 12.291 18.428 12.291 33.791 0 15.322-4.097 26.566-12.291 33.73-8.152 7.164-21.208 10.746-39.168 10.746h-34.699c-1.614 0-3-.538-4.159-1.615-1.158-1.118-1.738-2.485-1.738-4.1Zm23.402-11.864h16.511c11.132 0 18.705-2.03 22.719-6.088 4.014-4.058 6.021-10.994 6.021-20.809 0-9.855-2.007-16.813-6.021-20.87-4.014-4.1-11.587-6.15-22.719-6.15H541.64v53.917ZM623.018 7.659c0-1.615.579-3.003 1.738-4.162 1.158-1.16 2.545-1.74 4.159-1.74h50.465c12.373 0 21.498 3.562 27.374 10.685 3.269 3.934 4.904 8.965 4.904 15.094 0 6.087-2.793 11.409-8.38 15.964 7.946 4.265 11.918 10.891 11.918 19.877 0 8.986-3.186 15.82-9.559 20.499-6.332 4.638-14.111 6.957-23.34 6.957h-53.382c-1.614 0-3.001-.56-4.159-1.677-1.159-1.16-1.738-2.547-1.738-4.162V7.659Zm23.401 66.402h35.506c3.186 0 5.628-.952 7.325-2.857 1.696-1.905 2.545-4.514 2.545-7.827 0-3.313-.849-5.921-2.545-7.826-1.697-1.905-4.139-2.858-7.325-2.858h-35.506v21.368Zm0-37.704h33.209c2.607 0 4.697-.767 6.27-2.299 1.572-1.573 2.358-3.747 2.358-6.522 0-2.816-.786-5.01-2.358-6.584-1.573-1.574-3.663-2.36-6.27-2.36h-33.209v17.765Z"/>
    <path fill="#439FD9" fill-rule="evenodd" d="M212.213 15.791a7.945 7.945 0 0 1 8.973 6.767l7.464 53.147a7.95 7.95 0 0 1-6.762 8.98l-82.614 11.619a7.946 7.946 0 0 1-8.974-6.767l-7.464-53.147c-.611-4.348 2.417-8.369 6.762-8.98l82.615-11.619Zm-38.235 13.407 18.687-2.628 1.106 7.873-18.687 2.628-1.106-7.873Zm-14.173 56.189 17.703-2.49-1.106-7.873-17.703 2.49 1.106 7.873Zm-5.04-7.32 1.106 7.873-17.703 2.49-1.106-7.874 17.703-2.49Zm21.085-6.98-4.147-29.526-39.34 5.533 4.146 29.526 39.341-5.533Zm44.932 5.724-16.719 2.352-1.106-7.874 16.72-2.351 1.105 7.873Zm-40.998-6.277-4.147-29.526 39.34-5.533 4.147 29.526-39.34 5.533Zm20.345 9.182-1.106-7.874-18.687 2.629 1.106 7.873 18.687-2.628Zm-51.722-46.922-17.703 2.49 1.106 7.873 17.703-2.49-1.106-7.873Zm5.04 7.32-1.106-7.873 17.703-2.49 1.106 7.873-17.703 2.49Zm44.258-6.224-1.106-7.874 16.719-2.351 1.106 7.873-16.719 2.352Z" clip-rule="evenodd"/>
  </symbol>

  <symbol id="calendar" fill="none" viewBox="0 0 32 32">
    <path fill="currentColor" d="M29.334 3H25V1a1 1 0 1 0-2 0v2h-6V1a1 1 0 1 0-2 0v2H9V1a1 1 0 1 0-2 0v2H2.667A2.666 2.666 0 0 0 0 5.666v23.667A2.667 2.667 0 0 0 2.667 32h26.667A2.666 2.666 0 0 0 32 29.333V5.666A2.665 2.665 0 0 0 29.334 3zM30 29.333a.667.667 0 0 1-.666.667H2.667A.667.667 0 0 1 2 29.333V5.666C2 5.299 2.299 5 2.667 5H7v2a1 1 0 1 0 2 0V5h6v2a1 1 0 1 0 2 0V5h6v2a1 1 0 1 0 2 0V5h4.334c.367 0 .666.299.666.666v23.667z"/>
    <path fill="currentColor" d="M7 12h4v3H7zM7 17h4v3H7zM7 22h4v3H7zM14 22h4v3h-4zM14 17h4v3h-4zM14 12h4v3h-4zM21 22h4v3h-4zM21 17h4v3h-4zM21 12h4v3h-4z"/>
  </symbol>

  <symbol id="chevron_down" fill="none" viewBox="0 0 32 32">
    <path fill="currentColor" d="M16.488 24.761a1.174 1.174 0 0 1-.875-.374L4.375 13.147c-.5-.499-.5-1.273 0-1.772.5-.5 1.273-.5 1.773 0l10.364 10.364 10.34-10.34c.5-.499 1.274-.499 1.773 0 .5.5.5 1.274 0 1.774L17.387 24.412c-.25.25-.575.374-.875.374l-.024-.025Z"/>
  </symbol>

  <symbol id="clock" fill="none" viewBox="0 0 32 32">
    <path fill="currentColor" d="M16 1a15 15 0 1 0 15 15A15.016 15.016 0 0 0 16 1Zm0 27.692A12.693 12.693 0 1 1 28.692 16 12.707 12.707 0 0 1 16 28.692ZM25.23 16a1.154 1.154 0 0 1-1.153 1.154H16A1.154 1.154 0 0 1 14.846 16V7.923a1.154 1.154 0 1 1 2.308 0v6.923h6.923A1.154 1.154 0 0 1 25.23 16Z"/>
  </symbol>

  <symbol id="close" fill="none" viewBox="0 0 32 32">
    <path fill="currentColor" d="M27.468 4.55a1.812 1.812 0 0 0-2.566 0L16 13.433 7.098 4.532a1.815 1.815 0 1 0-2.566 2.566L13.433 16l-8.901 8.902a1.814 1.814 0 1 0 2.566 2.566L16 18.567l8.902 8.901a1.815 1.815 0 0 0 2.566-2.566L18.567 16l8.901-8.902a1.824 1.824 0 0 0 0-2.548Z"/>
  </symbol>

  <symbol id="film_strip" fill="none" viewBox="0 0 32 32">
    <path stroke="currentColor" stroke-linecap="round" stroke-linejoin="round" stroke-width="2" d="M29.538 6.107H2.461c-.68 0-1.23.464-1.23 1.036v18.641c0 .572.55 1.036 1.23 1.036h27.077c.68 0 1.231-.464 1.231-1.036V7.143c0-.572-.55-1.036-1.23-1.036ZM16 6.107V26.82M1.23 10.25h29.54M1.23 22.676h29.54M8.614 6.107v4.142m14.77-4.142v4.142M8.615 22.678v4.143m14.77-4.143v4.143"/>
  </symbol>

  <symbol id="fire" fill="none" viewBox="0 0 32 32">
    <path stroke="currentColor" stroke-linecap="round" stroke-linejoin="round" stroke-width="2" d="M7.986 8.2c-2.2 3.314-4 7.114-4 10.657a12 12 0 1 0 24 0c0-7.428-5.143-13.143-9.315-17.3L13.7 12 7.986 8.2Z"/>
  </symbol>

  <symbol id="fire_solid" fill="none" viewBox="0 0 32 32">
    <path fill="currentColor" stroke="currentColor" stroke-linecap="round" stroke-linejoin="round" stroke-width="2" d="M7.986 8.2c-2.2 3.314-4 7.114-4 10.657a12 12 0 1 0 24 0c0-7.428-5.143-13.143-9.315-17.3L13.7 12 7.986 8.2Z"/>
  </symbol>

  <symbol id="ghost"  fill="none" viewBox="0 0 32 32">
    <path fill="currentColor" d="M13.12 14.72a1.6 1.6 0 1 1-3.2 0 1.6 1.6 0 0 1 3.2 0Zm7.36-1.6a1.6 1.6 0 1 0 0 3.2 1.6 1.6 0 0 0 0-3.2Zm10.56 2.24v15.36a.96.96 0 0 1-1.568.742l-4.085-3.342-4.086 3.342a.96.96 0 0 1-1.216 0L16 28.12l-4.085 3.342a.96.96 0 0 1-1.216 0L6.613 28.12l-4.085 3.342A.96.96 0 0 1 .96 30.72V15.36a15.04 15.04 0 0 1 30.08 0Zm-1.92 0a13.12 13.12 0 0 0-26.24 0v13.334l3.125-2.56a.96.96 0 0 1 1.216 0l4.086 3.343 4.085-3.343a.96.96 0 0 1 1.216 0l4.085 3.343 4.086-3.343a.96.96 0 0 1 1.216 0l3.125 2.56V15.36Z"/>
  </symbol>

  <symbol id="search" fill="none" viewBox="0 0 32 32">
    <path fill="currentColor" fill-rule="evenodd" d="M9.204 1.792a13.694 13.694 0 0 1 15.768 21.412l5.912 5.912a1.25 1.25 0 0 1-1.768 1.768l-5.912-5.912a13.695 13.695 0 1 1-14-23.18Zm5.24 1.458a11.195 11.195 0 1 0 0 22.39 11.195 11.195 0 0 0 0-22.39Z" clip-rule="evenodd"/>
  </symbol>

  <symbol id="stack" fill="none" viewBox="0 0 32 32">
    <path stroke="currentColor" stroke-linecap="round" stroke-linejoin="round" stroke-width="2" d="m2.154 22.857 13.846 8 13.846-8"/>
    <path stroke="currentColor" stroke-linecap="round" stroke-linejoin="round" stroke-width="2" d="M2.154 16 16 24l13.846-8"/>
    <path stroke="currentColor" stroke-linecap="round" stroke-linejoin="round" stroke-width="2" d="m2.154 9.143 13.846 8 13.846-8-13.846-8-13.846 8Z"/>
  </symbol>

  <symbol id="torrent" viewBox="0 0 256 256">
    <path fill="none" stroke="currentColor" stroke-linecap="round" stroke-linejoin="round" stroke-width="8" d="M127.3 95a24.1 24.1 0 0 1 33.6-.3c9.7 9.3 9.5 25.1-.1 34.7l-67 64.9a8.1 8.1 0 0 0-.1 11.4l28.7 28.7a8.1 8.1 0 0 0 11.3.1l66.4-65.2c31.2-31.2 32.1-82 1.2-113.4a80 80 0 0 0-113.6-.5l-66.1 66.9a8 8 0 0 0 0 11.3l28.7 28.7a8.1 8.1 0 0 0 11.4-.1ZM126.8 162.4l39.8 39.8M54 89.6l39.7 39.8"/>
  </symbol>

</svg>
